<?xml version="1.0" standalone="no"?>
<svg xmlns:xlink="http://www.w3.org/1999/xlink" id="wave" style="transform:rotate(0deg); transition: 0.3s" viewBox="0 0 1440 100" version="1.1" xmlns="http://www.w3.org/2000/svg"><defs><linearGradient id="sw-gradient-0" x1="0" x2="0" y1="1" y2="0"><stop stop-color="rgba(239, 125, 34, 1)" offset="0%"/><stop stop-color="rgba(239, 125, 34, 1)" offset="100%"/></linearGradient></defs><path style="transform:translate(0, 0px); opacity:1" fill="url(#sw-gradient-0)" d="M0,70L120,66.7C240,63,480,57,720,58.3C960,60,1200,70,1440,70C1680,70,1920,60,2160,60C2400,60,2640,70,2880,68.3C3120,67,3360,53,3600,48.3C3840,43,4080,47,4320,50C4560,53,4800,57,5040,63.3C5280,70,5520,80,5760,75C6000,70,6240,50,6480,40C6720,30,6960,30,7200,36.7C7440,43,7680,57,7920,56.7C8160,57,8400,43,8640,31.7C8880,20,9120,10,9360,6.7C9600,3,9840,7,10080,21.7C10320,37,10560,63,10800,76.7C11040,90,11280,90,11520,90C11760,90,12000,90,12240,78.3C12480,67,12720,43,12960,36.7C13200,30,13440,40,13680,43.3C13920,47,14160,43,14400,35C14640,27,14880,13,15120,18.3C15360,23,15600,47,15840,50C16080,53,16320,37,16560,28.3C16800,20,17040,20,17160,20L17280,20L17280,100L17160,100C17040,100,16800,100,16560,100C16320,100,16080,100,15840,100C15600,100,15360,100,15120,100C14880,100,14640,100,14400,100C14160,100,13920,100,13680,100C13440,100,13200,100,12960,100C12720,100,12480,100,12240,100C12000,100,11760,100,11520,100C11280,100,11040,100,10800,100C10560,100,10320,100,10080,100C9840,100,9600,100,9360,100C9120,100,8880,100,8640,100C8400,100,8160,100,7920,100C7680,100,7440,100,7200,100C6960,100,6720,100,6480,100C6240,100,6000,100,5760,100C5520,100,5280,100,5040,100C4800,100,4560,100,4320,100C4080,100,3840,100,3600,100C3360,100,3120,100,2880,100C2640,100,2400,100,2160,100C1920,100,1680,100,1440,100C1200,100,960,100,720,100C480,100,240,100,120,100L0,100Z"/></svg>