<?xml version="1.0" standalone="no"?>
<svg xmlns:xlink="http://www.w3.org/1999/xlink" id="wave" style="transform:rotate(0deg); transition: 0.3s" viewBox="0 0 1440 100" version="1.1" xmlns="http://www.w3.org/2000/svg"><defs><linearGradient id="sw-gradient-0" x1="0" x2="0" y1="1" y2="0"><stop stop-color="rgba(239, 125, 34, 1)" offset="0%"/><stop stop-color="rgba(239, 125, 34, 1)" offset="100%"/></linearGradient></defs><path style="transform:translate(0, 0px); opacity:1" fill="url(#sw-gradient-0)" d="M0,80L80,81.7C160,83,320,87,480,80C640,73,800,57,960,55C1120,53,1280,67,1440,75C1600,83,1760,87,1920,78.3C2080,70,2240,50,2400,46.7C2560,43,2720,57,2880,65C3040,73,3200,77,3360,75C3520,73,3680,67,3840,63.3C4000,60,4160,60,4320,56.7C4480,53,4640,47,4800,45C4960,43,5120,47,5280,48.3C5440,50,5600,50,5760,50C5920,50,6080,50,6240,55C6400,60,6560,70,6720,66.7C6880,63,7040,47,7200,41.7C7360,37,7520,43,7680,41.7C7840,40,8000,30,8160,28.3C8320,27,8480,33,8640,30C8800,27,8960,13,9120,10C9280,7,9440,13,9600,28.3C9760,43,9920,67,10080,71.7C10240,77,10400,63,10560,56.7C10720,50,10880,50,11040,48.3C11200,47,11360,43,11440,41.7L11520,40L11520,100L11440,100C11360,100,11200,100,11040,100C10880,100,10720,100,10560,100C10400,100,10240,100,10080,100C9920,100,9760,100,9600,100C9440,100,9280,100,9120,100C8960,100,8800,100,8640,100C8480,100,8320,100,8160,100C8000,100,7840,100,7680,100C7520,100,7360,100,7200,100C7040,100,6880,100,6720,100C6560,100,6400,100,6240,100C6080,100,5920,100,5760,100C5600,100,5440,100,5280,100C5120,100,4960,100,4800,100C4640,100,4480,100,4320,100C4160,100,4000,100,3840,100C3680,100,3520,100,3360,100C3200,100,3040,100,2880,100C2720,100,2560,100,2400,100C2240,100,2080,100,1920,100C1760,100,1600,100,1440,100C1280,100,1120,100,960,100C800,100,640,100,480,100C320,100,160,100,80,100L0,100Z"/></svg>